<mxfile host="app.diagrams.net" modified="2023-04-25T23:42:05.252Z" agent="Mozilla/5.0 (Windows NT 10.0; Win64; x64) AppleWebKit/537.36 (KHTML, like Gecko) Chrome/112.0.0.0 Safari/537.36" version="21.2.2" etag="rgoKyV5C3j6SPO3UY_tl" type="github">
  <diagram name="Page-1" id="EQ-WjK82Abk_Xl8jSR0y">
    <mxGraphModel>
      <root>
        <mxCell id="0" />
        <mxCell id="1" parent="0" />
      </root>
    </mxGraphModel>
  </diagram>
</mxfile>
